<svg width="66" height="66" viewBox="0 0 66 66" fill="none" xmlns="http://www.w3.org/2000/svg">
<path d="M65.7113 12.5194L60.2113 1.51938C59.9826 1.06249 59.6312 0.678329 59.1965 0.409962C58.7618 0.141595 58.2609 -0.000365064 57.75 7.05036e-07H8.25C7.73911 -0.000365064 7.23821 0.141595 6.80348 0.409962C6.36875 0.678329 6.01737 1.06249 5.78875 1.51938L0.28875 12.5194C0.0991953 12.9019 0.000386667 13.3231 0 13.75V60.5C0 61.9587 0.579462 63.3576 1.61091 64.3891C2.64236 65.4205 4.04131 66 5.5 66H60.5C61.9587 66 63.3576 65.4205 64.3891 64.3891C65.4205 63.3576 66 61.9587 66 60.5V13.75C65.9996 13.3231 65.9008 12.9019 65.7113 12.5194ZM9.94812 5.5H56.0519L58.8019 11H7.19812L9.94812 5.5ZM60.5 60.5H5.5V16.5H60.5V60.5ZM45.9456 39.3044C46.2013 39.5598 46.4041 39.8631 46.5425 40.1969C46.6809 40.5308 46.7522 40.8886 46.7522 41.25C46.7522 41.6114 46.6809 41.9692 46.5425 42.3031C46.4041 42.6369 46.2013 42.9402 45.9456 43.1956L34.9456 54.1956C34.6902 54.4513 34.3869 54.6541 34.0531 54.7925C33.7192 54.9309 33.3614 55.0022 33 55.0022C32.6386 55.0022 32.2808 54.9309 31.9469 54.7925C31.6131 54.6541 31.3098 54.4513 31.0544 54.1956L20.0544 43.1956C19.5384 42.6796 19.2485 41.9798 19.2485 41.25C19.2485 40.5202 19.5384 39.8204 20.0544 39.3044C20.5704 38.7884 21.2702 38.4985 22 38.4985C22.7298 38.4985 23.4296 38.7884 23.9456 39.3044L30.25 45.6122V24.75C30.25 24.0207 30.5397 23.3212 31.0555 22.8055C31.5712 22.2897 32.2707 22 33 22C33.7293 22 34.4288 22.2897 34.9445 22.8055C35.4603 23.3212 35.75 24.0207 35.75 24.75V45.6122L42.0544 39.3044C42.3098 39.0487 42.6131 38.8459 42.9469 38.7075C43.2808 38.5691 43.6386 38.4978 44 38.4978C44.3614 38.4978 44.7192 38.5691 45.0531 38.7075C45.3869 38.8459 45.6902 39.0487 45.9456 39.3044Z" fill="white"/>
</svg>
