<svg width="88" height="70" viewBox="0 0 88 70" fill="none" xmlns="http://www.w3.org/2000/svg">
<path d="M86.9 44.4927C86.6376 43.7515 86.3292 43.0278 85.9768 42.3258L69.6379 4.70558C69.4833 4.34325 69.262 4.01401 68.9857 3.73545C67.8183 2.55371 66.4323 1.61628 64.9069 0.976709C63.3815 0.337138 61.7465 0.00795204 60.0954 0.00795204C58.4442 0.00795204 56.8092 0.337138 55.2838 0.976709C53.7584 1.61628 52.3724 2.55371 51.205 3.73545C50.6177 4.33052 50.2871 5.13679 50.2857 5.97788V15.9177H37.7143V5.97788C37.7146 5.56005 37.6336 5.14626 37.4759 4.76013C37.3181 4.374 37.0868 4.02311 36.795 3.7275C35.6276 2.54576 34.2416 1.60833 32.7162 0.968757C31.1908 0.329186 29.5558 0 27.9046 0C26.2535 0 24.6185 0.329186 23.0931 0.968757C21.5677 1.60833 20.1817 2.54576 19.0143 3.7275C18.738 4.00606 18.5167 4.33529 18.3621 4.69763L2.02322 42.3179C1.67077 43.0198 1.36242 43.7435 1.1 44.4848C0.174822 47.1046 -0.173174 49.8976 0.0803893 52.6679C0.333953 55.4382 1.18294 58.1189 2.56789 60.5222C3.95284 62.9255 5.84024 64.9933 8.09789 66.5807C10.3555 68.1681 12.9288 69.2368 15.6375 69.7118C18.3462 70.1869 21.1247 70.0568 23.7785 69.3307C26.4322 68.6046 28.897 67.3 31.0002 65.5085C33.1034 63.7169 34.7941 61.4816 35.9539 58.9591C37.1137 56.4367 37.7145 53.6881 37.7143 50.9059V22.2792H50.2857V50.9059C50.2843 53.6884 50.8842 56.4376 52.0432 58.9607C53.2022 61.4839 54.8924 63.7201 56.9953 65.5126C59.0981 67.305 61.5629 68.6104 64.2168 69.3373C66.8707 70.0642 69.6495 70.195 72.3586 69.7205C75.0677 69.2459 77.6415 68.1776 79.8997 66.5904C82.1579 65.0031 84.0458 62.9353 85.4311 60.5319C86.8165 58.1284 87.6658 55.4475 87.9195 52.6768C88.1733 49.9062 87.8253 47.1129 86.9 44.4927ZM23.8504 7.86645C24.8982 6.97354 26.2055 6.45149 27.5735 6.37972C28.9415 6.30795 30.2951 6.69039 31.4286 7.46885V36.6959C28.9748 34.466 25.9851 32.9279 22.7589 32.2357C19.5328 31.5435 16.1835 31.7214 13.0468 32.7518L23.8504 7.86645ZM18.8571 63.6289C16.3708 63.6289 13.9402 62.8827 11.8728 61.4847C9.80547 60.0866 8.19416 58.0996 7.24266 55.7748C6.29116 53.4499 6.0422 50.8918 6.52727 48.4238C7.01234 45.9557 8.20966 43.6887 9.9678 41.9094C11.7259 40.1301 13.966 38.9183 16.4046 38.4274C18.8432 37.9365 21.3709 38.1884 23.668 39.1514C25.9652 40.1144 27.9285 41.7451 29.3099 43.8374C30.6913 45.9297 31.4286 48.3895 31.4286 50.9059C31.4286 54.2802 30.1041 57.5164 27.7465 59.9024C25.3889 62.2884 22.1913 63.6289 18.8571 63.6289ZM56.5714 7.46488C57.7049 6.68641 59.0585 6.30397 60.4265 6.37574C61.7945 6.44751 63.1018 6.96957 64.1496 7.86247L74.9532 32.7438C71.8161 31.714 68.4667 31.5367 65.2405 32.2296C62.0144 32.9225 59.0248 34.4614 56.5714 36.6919V7.46488ZM69.1429 63.6289C66.6565 63.6289 64.2259 62.8827 62.1585 61.4847C60.0912 60.0866 58.4799 58.0996 57.5284 55.7748C56.5769 53.4499 56.3279 50.8918 56.813 48.4238C57.2981 45.9557 58.4954 43.6887 60.2535 41.9094C62.0117 40.1301 64.2517 38.9183 66.6903 38.4274C69.1289 37.9365 71.6566 38.1884 73.9537 39.1514C76.2509 40.1144 78.2142 41.7451 79.5956 43.8374C80.977 45.9297 81.7143 48.3895 81.7143 50.9059C81.7143 54.2802 80.3898 57.5164 78.0322 59.9024C75.6746 62.2884 72.477 63.6289 69.1429 63.6289Z" fill="white"/>
</svg>
